<?xml version="1.0" encoding="utf-8"?>
<!-- Generator: Adobe Illustrator 28.1.0, SVG Export Plug-In . SVG Version: 6.00 Build 0)  -->
<svg version="1.1" id="Layer_1" xmlns="http://www.w3.org/2000/svg" xmlns:xlink="http://www.w3.org/1999/xlink" x="0px" y="0px"
	 viewBox="0 0 1295 515" style="enable-background:new 0 0 1295 515;" xml:space="preserve">
<style type="text/css">
	.st0{fill:#1867C0;}
	.st1{fill:#FF4155;}
	.st2{fill:#543E5B;}
	.st3{fill:#422953;}
	.st4{fill:#30144A;}
	.st5{fill:#665364;}
</style>
<g id="Layer_1_00000134220682668518986710000009807120000762789532_">
	<g>
		<path class="st0" d="M72.2,185.7H54.8V237h-8.1v-51.3H29.2v-8.1h43V185.7z"/>
		<path class="st0" d="M125.9,177.6V237h-8.2v-25.8H88.4V237h-8.1v-59.4h8.1v25.7h29.4v-25.7H125.9z"/>
		<path class="st0" d="M176.3,228.9v8.1h-39.4v-59.4h38.9v8.1H145v17.6h28.3v7.9H145v17.6L176.3,228.9L176.3,228.9z"/>
		<path class="st0" d="M484.8,392.5l8.6,4.3c-5.8,9.8-16.1,16.3-28.5,16.3c-19.6,0-33.7-15.8-33.7-35.4c0-19.5,14.1-35.3,33.7-35.3
			c12.5,0,22.8,6.4,28.5,16.2l-8.6,4.4c-4.1-6.7-11.1-11.1-19.9-11.1c-14.4,0-24,11.6-24,25.9c0,14.4,9.6,25.9,24,25.9
			C473.7,403.5,480.7,399.1,484.8,392.5z"/>
		<path class="st0" d="M568.1,377.6c0,19.6-14.2,35.4-33.7,35.4s-33.6-15.9-33.6-35.4s14.1-35.3,33.6-35.3S568.1,358.1,568.1,377.6z
			 M558.4,377.6c0-14.3-9.6-25.9-24-25.9c-14.3,0-23.9,11.5-23.9,25.9c0,14.3,9.6,26,23.9,26C548.8,403.6,558.4,392,558.4,377.6z"/>
		<path class="st0" d="M635.4,377.6c0,20.1-14.2,34.7-36.5,34.7h-20.4V343H599C621.6,343,635.4,357.4,635.4,377.6z M625.7,377.6
			c0-15.5-10.1-25.3-26.8-25.3h-11v50.5h11C615.3,402.8,625.7,393,625.7,377.6z"/>
		<path class="st0" d="M691.3,402.8v9.5h-46V343h45.5v9.4h-36.1V373h33v9.2h-33v20.6L691.3,402.8L691.3,402.8z"/>
	</g>
	<g>
		<path d="M322.7,271.7h-36.4v54.9h-21.2V172.3h58c31.3,0,50.2,22.3,50.2,49.6c0,20.5-10.6,38.1-28.9,45.6l33.3,59.1h-24
			L322.7,271.7z M286.3,250.8h36.8c18.5,0,28.6-13.7,28.6-28.9c0-15-10.1-28.6-28.6-28.6h-36.8V250.8z"/>
		<path d="M482.1,284.1H427l-15.2,42.5h-22.9l55.3-154.3h20.5l55.5,154.3h-23.1L482.1,284.1z M474.6,263.6l-20.1-59.7l-20.3,59.7
			H474.6z"/>
		<path d="M665,245.7v46.5c-12.6,22-33.5,35.9-63.3,35.9c-43.6,0-74.9-35-74.9-78.7c0-43.4,31.3-78.5,74.9-78.5
			c27.8,0,50.7,14.3,63.7,35.9l-19.4,9.7c-9-15-24.7-24.7-44.3-24.7c-32,0-53.3,25.8-53.3,57.5c0,32,21.4,57.5,53.3,57.5
			c21.2,0,34.4-7.9,42.3-19.8v-22.3h-41.7v-19.2L665,245.7L665,245.7z"/>
		<path d="M189,175.9v22.2c20.5,8.2,32.2,26.5,32.2,51.4c0,34.2-23.1,56-59.5,56h-24.5V250h-20.9v76.6h45.4
			c49.6,0,81.1-32.4,81.1-77.1C242.9,213.4,222.9,185.5,189,175.9z"/>
		<path d="M1258.2,172.3v154.3H1238l-75.4-115.9v115.9h-21.2V172.3h20.5l75.4,115.9V172.3H1258.2z"/>
	</g>
</g>
<g id="Layer_2_00000155132433547893888550000013466604750903695235_">
	<circle class="st1" cx="901.9" cy="258.3" r="217.7"/>
	<path class="st2" d="M992.9,138.2c-22.8-56.2-34.3-78-39.6-87.1c-5.9-10.2-8.4-11.9-9.7-11.4c-2,0.7-1.5,7.3-0.9,13.2
		c1.2,10.9,3.9,27.1,10.6,48.4C966.5,113.6,979.7,125.9,992.9,138.2z"/>
	<path class="st3" d="M973.6,227.9c4.4,7.9,8.3,14.4,11.4,19.4c6.4,10.2,10.8,16.2,13.2,19.3c3.8,5.1,5.8,7.7,8.8,10.6
		c3.8,3.6,5.4,4.2,15,10.6c3.5,2.3,10.2,6.2,23.7,14.1c1.9,1.1,4.9,2.8,7.9,1.8c2.2-0.8,4.1-3,4.4-5.3c0.5-3.8-3.4-7.1-5.3-8.8
		c0,0-10.8-9.6-20.2-22c-5.6-7.3-8-14.2-11.4-23.8c-2.7-7.6-4.3-14.3-5.3-19.4c-1-0.2-2.5-0.6-4.4-0.9c-3.5-0.6-9.1-1-21.1,0.9
		C986,225.1,980.2,226.2,973.6,227.9z"/>
	<path class="st4" d="M795.6,448.3C827,465.9,863.3,476,901.9,476c49.7,0,95.6-16.7,132.2-44.8c-1.4-6.7-3.4-13.8-6-21.2
		c-10.7-29.9-27.4-50-37.8-60.7c-60.1,17.3-120.2,34.6-180.3,51.9c0.1,7.3-0.6,20.1-7,34.3C800.7,440.5,798.1,444.7,795.6,448.3z"/>
	<path class="st3" d="M959.5,296.6c-8.4-6.6-15.7-11.3-20.2-14.1c-49.5,15.5-99.1,31.1-148.7,46.6c8.4,20.5,8.8,36.2,7.9,45.7
		c-1.3,14.7-2.9,32.9-8.8,44c-0.6,1.2-3.1,5.7-1.8,7c0.8,0.8,2.9,0.2,7-1.8c6.8-3.3,11.4-5.5,16.7-10.6c5.2-4.9,8.5-10,10.6-14.1
		c2.4,3.6,5.4,9,7.9,15.8c4.5,12.6,4.5,23.2,4.4,34.3c0,4.4-0.3,9.6-1,15.5c12.8,4.2,26.1,7.3,39.8,9.1c5.3-6.8,11.3-16.1,15.7-28.1
		c3-8.2,4.5-15.7,5.3-22c1.3,5.5,2.5,11.4,3.5,17.6c2,12.4,2.7,24,2.7,34.3c0.4,0,0.8,0,1.3,0c6.5,0,13-0.3,19.4-0.9
		c3-10.2,5.9-22.6,7.4-37c1.7-16.5,1.2-30.8,0-42.2c4.8,7.3,9.9,16.7,14.1,28.1c6.5,17.9,8,34.2,8,46.4c6.2-1.4,12.2-3.1,18.2-5
		c1.3-6.9,2.3-14.5,2.8-22.9c1-16-0.1-30-1.8-41.3c4.8,10.4,9.5,21.5,14.1,33.4c2.9,7.5,5.5,14.8,7.9,21.9c5.3-2.4,10.5-5,15.5-7.9
		c0.5-12.3-0.3-28.4-5-46.5c-5.3-20.6-13.7-36.3-20.2-46.6c12.4,8.3,22.9,15.1,30.8,20.2c8.5,5.5,12.8,8.2,14.1,7
		c1-1,0.3-4.7-12.3-22.9C997.5,334.9,984,315.8,959.5,296.6z"/>
	<path class="st2" d="M746.6,264c11.3,18.5,20.4,33.3,26.4,43.1c7,11.4,13.5,22.2,23.8,36.1c0,0,13.7,18.5,37.8,31.7
		c0.8,0.4,2.8,1.5,3.5,0.9c1.2-1-1.5-5.4-4.4-12.3c-2.3-5.6-1.8-6-4.4-13.2c-1.4-4-3.7-9.8-7-16.7c9.5,8.6,20.1,17.8,31.7,27.3
		c0,0,11.1,9.1,37.8,22.9c1.8,0.9,5.9,3,7,1.8c0.9-1-0.5-3.6-0.9-4.4c-3-5.8-14.7-30-30.8-63.3c9.8,11.5,18.6,20.6,25.5,27.3
		c0,0,27.6,26.9,58.9,38.7c1.6,0.6,5.4,2,6.2,0.9c0.9-1.2-2.5-5-3.5-6.2c-10.2-11.5-17.1-25.6-26.4-37.8
		c-5.4-7.1-13.3-17.6-22.9-30.8c9.5,5.8,17.9,10.1,24.6,13.2c0,0,10.1,4.7,31.7,9.7c1.7,0.4,5.5,1.2,6.2,0c0.7-1.3-2.6-4.4-4.4-6.2
		c-6.2-5.9-11.4-12.6-17.6-18.5c-4.3-4-10.4-9.9-17.6-17.6c7.7,1.3,14,2.6,18.5,3.5c5.6,1.2,11.2,2.3,16.7,3.5
		c9.1,2,12.6,2.9,13.2,1.8c0.7-1.4-4.2-5.3-5.3-6.2c-9.8-7.7-43.3-36.8-91.5-79.2C835.2,230.6,790.9,247.3,746.6,264z"/>
	<path class="st5" d="M752.8,137.4c-5.1,6.2-11.8,15.9-16.7,29c-6.1,16.3-6.2,29.7-6.2,44c0,27.6,6,47.6,11.4,65.1
		c0,0,5.2,16.9,25.5,43.1c0.5,0.6,1.6,2,2.6,1.8c1.9-0.4,2.5-5.6,2.6-7c0.8-7.2,4.8-27.7,11.4-59.8c2.3,7.2,6,16.2,12.3,25.5
		c6.4,9.5,12.6,15.1,19.3,21.1c4.5,4.1,10.4,9.3,12.3,7.9c1.5-1.1-0.2-5.9-0.9-7.9c-3.8-10.9-9.1-26.6-15.8-46.6
		c8.6,11.8,17,20.8,23.8,27.3c0,0,13.5,12.9,31.7,20.2c1.7,0.7,5.8,2.3,7,0.9c0.6-0.7,0.2-2,0-2.6c-2.1-6-23-55-24.6-58.9
		c7.1,6.2,12.3,11.8,15.8,15.8c9,10.4,14.8,16.3,26.4,28.1c1.3,1.4,4.1,4.2,5.3,3.5c1.2-0.7,0-4.9-0.9-7.9
		c-5.5-19-8.3-28.5-8.8-29.9c-1.2-3.5-3.4-9.6-6.2-17.6c1.5,1.6,3.9,3.9,7,6.2c1.9,1.4,7,4.9,27.3,10.6c0,0,8.8,2.4,22,4.4
		c5,0.7,8.4,1.1,8.8,0c0.6-1.5-5.4-5.1-7-6.2c-13.3-8.3-37.5-33.7-44-63.3c-1.5-7-3-18.5,0-33.4C847.2,146.1,800,141.8,752.8,137.4z
		"/>
	<path class="st4" d="M809.1,96c-5.8,1.4-40.5,10.2-62.5,33.4c-5.2,5.5-9,11.3-16.7,22.9c0,0-4,6-8.8,21.1c-0.4,1.2-1.3,4.1,0,5.3
		c1.1,1.1,3.4,0.3,4.4,0c5-1.7,22.7-8.3,46.6-17.6c-1.8,11.1-2,20.5-1.8,27.3c0.4,10.2,1.8,16.8,2.6,20.2c0.7,2.6,1.9,5.8,4.4,12.3
		c1.8,4.6,2.5,6.1,3.5,6.2c2.1,0.1,3.9-6.8,4.4-8.8c2.3-8.7,6.6-22.6,15-46.6c-0.4,9.2,0.6,16.7,1.8,22c2.6,12.3,7.2,20.6,11.4,28.1
		c0.6,1,3.6,6.4,8.8,12.3c3,3.5,6.9,7.9,8.8,7c2.2-1,0.6-8.6,0-11.4c-1.9-9.6-3.9-24.1-4.4-45.7c3.9,7.4,8.1,13,11.4,16.7
		c7.4,8.4,13.8,12.1,20.2,15.8c4.3,2.5,7.4,3.8,8.8,2.6c1.5-1.3,0.3-4.9,0-6.2c-3.8-13.2,2-33.2,4.4-39.6c2-5.4,7.1-15.8,21.1-25.5
		C864.8,130.6,837,113.3,809.1,96z"/>
	<path class="st3" d="M905,81.9c-35.2-13.2-70.4-26.4-105.5-39.6c-0.6-0.3-4.8-2.3-6.2-0.9c-0.8,0.8-0.3,2.5,0,3.5
		c4.2,12.8,14.1,22,14.1,22c3.4,3.2,8.6,7.4,15.8,11.4c-6.4-0.1-70.3-1.1-86.2-0.9c-1.9,0-6.6,0.1-7,1.8c-0.4,1.6,3.1,3.8,7,6.2
		c11.3,6.9,16.9,10.3,19.3,11.4c11.2,5.1,20.5,7.2,27.3,8.8c8.2,1.9,19.2,3.8,32.5,4.4c-13.2,9.7-26.4,19.4-39.6,29
		c-1.7,1.2-3.8,2.9-3.5,4.4c0.6,2.9,9.6,3.2,15.8,3.5c7,0.3,14.2,0.6,23.8-1.8c7-1.8,12.9-4.4,17.6-7c-6.6,10.8-11.3,17.9-15,22.9
		c-1.1,1.6-3.8,5.3-2.6,7c0.8,1.3,3.3,1,4.4,0.9c25-3,38.7-8.8,38.7-8.8c7.1-3,18.1-7.5,32.5-13.2C893.8,125.3,899.4,103.6,905,81.9
		z"/>
	<path class="st2" d="M1015.8,224.4c-9.4-1.1-16.9-0.6-22,0c-8.8,1.1-12,2.9-22.8,3.9c-2,0.2-8,0.8-15.9,0.4
		c-7.6-0.3-16.5-0.8-27.3-4.4c-3.8-1.3-20.7-7-32.5-20.2c-22.6-25.3-13.3-63-12.3-66.9c-7,0.1-13-0.4-17.6-0.9c0,0-7.5-0.8-15.8-4.4
		c-2.1-0.9-4.4-2-4.4-3.5c0-1.3,1.8-2.2,2.6-2.6c10.6-4.4,21.1-8.8,31.7-13.2c-10.1-0.7-17.1-3.9-21.1-6.2
		c-9.7-5.5-19.3-15.5-17.6-18.5c0.4-0.7,1.3-0.8,1.8-0.9c5.6-0.8,26.4-1.1,54.5-0.9c-4.2-8.2-6.9-15.5-8.8-21.1
		c0,0-3.1-9.4-2.6-22.9c0-1,0.2-2.4,0.9-2.6c0.7-0.2,1.5,0.6,1.8,0.9c1.8,1.8,15,13.9,33.4,30.8c-12.8,26.8-15.9,49.9-16.7,64.2
		c-0.9,16.6-1.7,36.6,10.6,49.3c6.9,7.2,16.7,11.4,16.7,11.4c7.5,3.3,13.9,4,18.5,4.4c42.1,4.1,52.8,4.2,59.8,12.3
		C1012.2,214.9,1014.6,218.4,1015.8,224.4z"/>
	<path class="st5" d="M1084.4,222.7c3.9-2.4,13.6-7.8,17.6-4.4c1.8,1.5,1.8,4.2,1.8,5.3c0,8.5,0.1,28.9,0,56.3
		c0.3,6.8-4.9,12.2-10.6,12.3c-4.5,0.1-8.9-3.1-10.6-7.9c-0.8-5.1-5.3-31-29-47.5c-15.3-10.7-31-12.1-37.8-12.3
		c-1.8-5.4-4.4-8.7-6.2-10.6c-8.5-8.8-19.8-7.7-58.9-12.3c-5.6-0.7-12.3-1.5-20.2-5.3c-8.3-4-13.8-9.2-15.8-11.4
		c-12.3-13.2-11.5-33.2-10.6-49.3c0.8-14,4-37.3,17.6-64.2c27.8,26.1,55.7,52.2,83.6,78.3c1.8,1.2,5.6,4.2,7.9,9.7
		c1.7,4,1.8,7.6,1.8,9.7c0.1,1.9,0.5,4.8,1.8,7.9c4.1,10,14,14.6,18.5,16.7C1047.4,199.5,1063.3,209,1084.4,222.7z"/>
</g>
</svg>
